<svg xmlns="http://www.w3.org/2000/svg" viewBox="0 0 640 320" fill="none">
  <g fill="#003f34">
    <!-- ,S -->
    <path d="M120 168
             C 168 108, 268 86, 360 96
             C 430 104, 492 128, 540 150
             C 560 132, 588 120, 616 116
             C 600 140, 596 158, 600 176
             C 596 194, 600 212, 616 236
             C 588 232, 560 220, 540 202
             C 492 226, 430 250, 360 258
             C 268 268, 168 246, 120 186
             C 104 180, 104 174, 120 168 Z"/>
    <!-- ÌsŒ -->
    <path d="M300 96
             C 312 60, 340 44, 372 40
             C 360 58, 356 76, 360 96
             C 340 92, 318 92, 300 96 Z"/>
    <!-- ysŒ -->
    <path d="M286 258
             C 296 286, 318 300, 344 300
             C 336 284, 334 270, 340 256
             C 322 260, 304 260, 286 258 Z"/>
    <!-- øsŒ -->
    <path d="M232 178
             C 244 204, 268 218, 296 218
             C 280 200, 272 184, 274 168
             C 258 174, 244 178, 232 178 Z"/>
  </g>
  <!-- î -->
  <circle cx="168" cy="160" r="12" fill="#ffffff"/>
  <circle cx="168" cy="160" r="6" fill="#003f34"/>
  <!-- ã -->
  <path d="M120 168 C 110 172, 104 178, 100 184" stroke="#003f34" stroke-width="6" stroke-linecap="round" fill="none"/>
  <!-- H‰ -->
  <path d="M214 120 C 206 150, 206 196, 216 226" stroke="#003f34" stroke-width="5" stroke-linecap="round" fill="none" opacity="0.6"/>
</svg>
